Motion_kv08_l
version=1
nRows=9
nColumns=43
inDegrees=yes
endheader
time	pelvis_tilt	pelvis_list	pelvis_rotation	pelvis_tx	pelvis_ty	pelvis_tz	hip_flexion_r	hip_adduction_r	hip_rotation_r	knee_angle_r	ankle_angle_r	subtalar_angle_r	mtp_angle_r	hip_flexion_l	hip_adduction_l	hip_rotation_l	knee_angle_l	ankle_angle_l	subtalar_angle_l	mtp_angle_l	lumbar_extension	lumbar_bending	lumbar_rotation	neck_flexion	neck_lateral_bending	neck_rotation	arm_flex_r	arm_add_r	arm_rot_r	elbow_flex_r	pro_sup_r	wrist_flex_r	wrist_dev_r	hand_finger_flex_r	arm_flex_l	arm_add_l	arm_rot_l	elbow_flex_l	pro_sup_l	wrist_flex_l	wrist_dev_l	hand_finger_flex_l
      0.00250000	      0.20955324	    -27.29596478	     88.92628009	      0.00807040	      0.82580729	      1.91354717	     60.86267808	     -7.11283408	     -6.93323522	    -69.71585871	     14.84189844	      4.48239862	     23.91380748	     60.07966009	     -9.57522464	      0.06412941	    -68.10166673	     12.06162187	     22.53269293	     34.83021853	    -29.07094572	     -0.76901836	      4.51507474	     34.85647687	     -3.18983755	     -8.15971828	    102.19267052	    -33.53210556	     17.01836448	     70.89130037	    146.74861759	      3.22043699	    -13.84105065	     65.73393528	    107.78517463	    -26.09819558	     25.68970557	     58.23798533	    141.49527609	    -11.59073709	    -10.77223674	     69.61745365
      0.00500000	      0.12555163	    -27.24978428	     88.98977802	      0.00777917	      0.82291098	      1.91664663	     61.42234044	     -7.27427758	     -6.87477974	    -70.40979036	     15.11036451	      4.21361516	     23.92351691	     60.68225988	     -9.40939350	      0.12479433	    -68.85295557	     12.13264329	     22.37455850	     34.89435073	    -29.33476502	     -0.74986944	      4.38286197	     35.40474941	     -3.38432190	     -8.36988675	    103.35208291	    -33.29454088	     17.32467276	     70.33467905	    146.66384314	      3.70778161	    -13.81626045	     65.96820004	    108.81809004	    -26.14798328	     26.12538959	     57.87387062	    141.57995037	    -11.24341553	    -10.50546292	     69.66429020
      0.00750000	      0.13246864	    -27.20281432	     88.99115133	      0.00778494	      0.82010362	      1.91959177	     61.95453205	     -7.29470278	     -6.85231791	    -71.07144824	     15.30748430	      4.12770658	     23.93571851	     61.24715859	     -9.40621934	      0.19331185	    -69.57165090	     12.29175522	     22.24228674	     34.93754598	    -29.60303565	     -0.74420194	      4.38262717	     36.11295389	     -3.40787601	     -8.41144053	    104.26805908	    -33.03480909	     17.29372614	     69.89268310	    146.67561318	      3.81326438	    -13.77726179	     65.99768447	    109.70592232	    -26.00681307	     26.14897472	     57.44944978	    141.49422453	    -11.12762916	    -10.39250280	     69.61974167
      0.01000000	      0.13335243	    -27.19179830	     89.00386335	      0.00770887	      0.81711412	      1.92271327	     62.55758897	     -7.32149378	     -6.80551089	    -71.75713487	     15.48532753	      4.00403908	     23.93277154	     61.89050626	     -9.37619738	      0.27058164	    -70.33109146	     12.42279573	     22.04934866	     34.97485755	    -29.82684014	     -0.71782471	      4.39391946	     36.74152040	     -3.44434764	     -8.44829256	    105.32547892	    -32.81476941	     17.46298931	     69.36483616	    146.71347878	      4.01377568	    -13.81935390	     66.05674794	    110.71431213	    -25.90720125	     26.42099722	     56.92015055	    141.38032328	    -10.90946433	    -10.36416054	     69.57973021
      0.01250000	      0.12819011	    -27.26009005	     89.03897544	      0.00760574	      0.81369184	      1.92592970	     63.30741773	     -7.38379801	     -6.76683437	    -72.54472309	     15.52926612	      3.77741599	     23.84765358	     62.68549255	     -9.31242918	      0.37288742	    -71.18380234	     12.42200545	     21.64681694	     35.01168131	    -29.92436583	     -0.68954081	      4.37582343	     37.10020131	     -3.52199811	     -8.44594322	    106.53827647	    -32.79671282	     18.05428797	     68.78180870	    146.61562238	      4.49544872	    -14.13962675	     66.26753541	    111.90523636	    -26.02672293	     27.29362628	     56.37925834	    140.79457621	    -10.48486570	    -10.58095558	     69.51350580
      0.01500000	      0.12163062	    -27.22166476	     89.04055638	      0.00740751	      0.81082357	      1.92883961	     63.84071466	     -7.40974810	     -6.69086185	    -73.17532216	     15.73647954	      3.68151730	     23.84423039	     63.25116828	     -9.29556288	      0.39241919	    -71.88557317	     12.58605554	     21.56002405	     35.04890228	    -30.19174311	     -0.65779688	      4.40425114	     37.86960777	     -3.56019063	     -8.49756632	    107.46105198	    -32.48472596	     17.94196604	     68.34094756	    146.62106828	      4.51542610	    -14.11276755	     66.25829999	    112.75972554	    -25.85895951	     27.30166525	     55.90961100	    140.60080896	    -10.43835285	    -10.50892944	     69.42900916
      0.01750000	      0.08791949	    -27.26326051	     89.05189871	      0.00734787	      0.80746289	      1.93206480	     64.55962720	     -7.44911006	     -6.58154564	    -73.92702579	     15.78170566	      3.48128622	     23.73560437	     63.99260653	     -9.24619868	      0.42891175	    -72.69821256	     12.61559329	     21.23385140	     35.07834645	    -30.33473418	     -0.66704255	      4.39229329	     38.29690336	     -3.65720229	     -8.47959718	    108.70143181	    -32.41153588	     18.48642787	     67.67920144	    146.58812579	      4.89633044	    -14.39194862	     66.43145190	    113.99715978	    -25.90150057	     28.16021761	     55.26622280	    139.99839778	    -10.10325887	    -10.70716680	     69.32240684
      0.02000000	      0.07113059	    -27.21931498	     89.04330847	      0.00723117	      0.80456305	      1.93493660	     65.09249601	     -7.47151236	     -6.50145327	    -74.55795204	     15.98264632	      3.38681138	     23.72306516	     64.53861653	     -9.23462757	      0.44816062	    -73.37585015	     12.78186966	     21.14689062	     35.11120626	    -30.61301982	     -0.65960875	      4.41554117	     39.08419355	     -3.70703660	     -8.52310400	    109.62420234	    -32.11062589	     18.38345378	     67.23371421	    146.59472974	      4.91028949	    -14.37205129	     66.42623844	    114.87160012	    -25.72900317	     28.17643534	     54.79149818	    139.79396427	    -10.07251329	    -10.63782009	     69.23271871
      0.02250000	      0.04127577	    -27.18758461	     89.03627126	      0.00721731	      0.80150052	      1.93794357	     65.67553799	     -7.49114427	     -6.40368216	    -75.22788758	     16.12215690	      3.26863084	     23.68854922	     65.13132997	     -9.21618982	      0.47518755	    -74.08918706	     12.91287352	     20.99143895	     35.13561104	    -30.86457570	     -0.68185822	      4.42101229	     39.74660864	     -3.78954166	     -8.52788426	    110.69087981	    -31.88754197	     18.53866026	     66.65508114	    146.64509715	      5.05743560	    -14.43003913	     66.47225421	    115.90589846	    -25.57235337	     28.45902456	     54.20481658	    139.59493412	     -9.91669521	    -10.63694298	     69.15666690
